<?xml version="1.0" encoding="utf-8"?>
<!-- Generator: Adobe Illustrator 27.3.1, SVG Export Plug-In . SVG Version: 6.00 Build 0)  -->
<svg version="1.1" id="Layer_1" xmlns="http://www.w3.org/2000/svg" xmlns:xlink="http://www.w3.org/1999/xlink" x="0px" y="0px"
	 viewBox="0 0 50 50" style="enable-background:new 0 0 50 50;" xml:space="preserve">
<g>
	<path style="fill:#FFFFFF;stroke:#FFFFFF;stroke-width:0.25;stroke-miterlimit:10;" d="M10.7,15.9c0-0.2,0-0.3,0.1-0.5
		c0.1-0.5,0.3-1.1,0.4-1.6c0.6-2,1.4-3.1,3.2-4.2c0.5-0.3,0.9-0.6,1.3-0.9c0.3-0.2,1-0.7,1.3-0.5c0.2,0.2,0,0.5-0.1,0.6
		c-0.2,0.4-0.5,0.9-0.6,1.3c-0.3,0.9-0.2,1.8-0.3,2.7c-0.1,0.9-0.3,1.7-0.8,2.4c-0.8,1.3-2.9,2.7-4.2,1.3c-0.1-0.1-0.2-0.3-0.3-0.4
		C10.7,16,10.7,16,10.7,15.9z"/>
	<path style="fill:#FFFFFF;stroke:#FFFFFF;stroke-width:0.25;stroke-miterlimit:10;" d="M18.6,12.3c-0.1-1.2,0.8-2.5,1.8-3.2
		c0.4-0.3,0.9-0.6,1.4-0.9c0.8-0.5,1.6-1,2.4-1.4c0.8-0.4,2.7-1.4,3.4-0.2c0.5,0.9-0.5,1.6-1,2.3c-0.3,0.5-0.3,0.9-0.4,1.5
		c0,0.6-0.2,1.1-0.3,1.6c-0.3,0.9-0.8,1.7-1.5,2.3c-0.8,0.7-1.8,0.5-2.8,0.3c-0.9-0.2-2.1-0.2-2.7-1C18.7,13.1,18.6,12.7,18.6,12.3z
		"/>
	<path style="fill:#FFFFFF;stroke:#FFFFFF;stroke-width:0.25;stroke-miterlimit:10;" d="M27.7,13.7c0.2-1,1.3-1.5,2.1-2.1
		c0.9-0.6,1.7-1.4,2.6-2c0.4-0.3,0.7-0.5,1.1-0.7c0.5-0.2,1.1-0.6,1.7-0.5c0.5,0.1,0.6,0.6,0.7,1.1c0,0.5,0,1.1-0.1,1.6
		c-0.1,0.4-0.2,0.8-0.3,1.1c-0.1,0.5-0.2,1.1-0.3,1.7c0,0.3,0,0.7-0.1,1c-0.1,0.4-0.2,0.9-0.4,1.3c-0.5,1.1-1.4,1.6-2.5,1.7
		c-0.8,0.1-1.7,0-2.4-0.5c-0.1-0.1-0.3-0.3-0.4-0.4c-0.4-0.4-0.8-0.8-1.2-1.2c-0.4-0.4-0.6-0.7-0.7-1.3
		C27.6,14.1,27.6,13.9,27.7,13.7z"/>
	<path style="fill:#FFFFFF;stroke:#FFFFFF;stroke-width:0.25;stroke-miterlimit:10;" d="M32.6,24c-0.1-0.2-0.1-0.4-0.1-0.6
		c-0.1-0.8-0.5-1.5,0.1-2.1c0.5-0.6,1.4-1.1,2.1-1.6c0.4-0.3,0.8-0.6,1.2-0.9c0.2-0.2,0.5-0.1,0.7-0.2c0.3,0,0.6-0.1,0.9-0.1
		c0.5-0.1,1-0.1,1.5-0.2c0.2,0,0.4-0.1,0.6,0c0.2,0.1,0.4,0.3,0.5,0.4c0.5,0.7-0.2,1.4-0.6,2c-0.4,0.6-0.6,1.1-0.7,1.8
		c-0.2,0.7-0.5,1.4-0.8,2.1c-0.6,1.2-1.5,2.5-3,1.9c-0.8-0.3-1.4-0.9-1.9-1.6c-0.2-0.2-0.3-0.4-0.4-0.7C32.6,24.1,32.6,24.1,32.6,24
		z"/>
	<path style="fill:#FFFFFF;stroke:#FFFFFF;stroke-width:0.25;stroke-miterlimit:10;" d="M13.5,21.3c0.5-0.8,1.2-1.5,2.1-1.8
		c0.2-0.1,0.4-0.1,0.6-0.2c0.2,0,0.3,0,0.5-0.1c0.1-0.1,0.2-0.2,0.4-0.3c0.1-0.1,0.3-0.3,0.5-0.4c1.1-0.9,2.5-1.5,4-1.4
		c0.8,0,1.7,0.3,2.5,0.5c0.8,0.3,1.5,0.5,2.2,0.8c1.3,0.6,2.2,1.7,2.7,3.1c0.3,0.7,0.4,1.5,0.5,2.3c0.1,0.8,0,1.5,0.4,2.2
		c0.4,0.6,0.9,1,1.5,1.4c0.3,0.2,0.6,0.3,1,0.4c0.4,0.1,0.8,0.2,1.1,0.4c1.1,0.7,1.4,2.3,0.5,3.3c-0.5,0.6-1.2,1-1.9,1.4
		c-0.7,0.5-1.3,1-1.8,1.7c-1,1.2-1.7,2.7-1.9,4.3c-0.1,0.8-0.2,1.7-0.3,2.5C28,42,27.4,42.6,26.9,43c-1.2,1.1-2.7,1.6-4.2,1.9
		c-1.7,0.3-3.4,0.4-5.1,0.6c-0.9,0.1-1.8,0.2-2.7,0.2c-0.4,0-0.8,0-1.2,0c-0.3,0-0.7,0-0.9-0.2c-0.3-0.3,0.3-0.6,0.5-0.7
		c0.5-0.3,1-0.5,1.4-0.8c1.4-0.8,2.8-1.7,3.9-2.8c1-1,1.7-2.3,2.1-3.6c0.5-1.6,0.6-3.2,0.1-4.8c-0.5-1.3-1.3-2.5-2.4-3.5
		c-0.6-0.6-1.3-1.1-2-1.5c-0.6-0.4-1.3-0.8-1.8-1.4c-1-1-1.7-2.3-1.6-3.7C13.1,22.2,13.3,21.7,13.5,21.3z"/>
</g>
</svg>
